<svg width="512" height="512" viewBox="0 0 24 24" fill="none" xmlns="http://www.w3.org/2000/svg">
<path d="M12 2L9.88 7.33L4 8.25L8.5 12.36L7.28 18L12 15.27L16.72 18L15.5 12.36L20 8.25L14.12 7.33L12 2Z" fill="#0ea5e9"/>
<path d="M12 2L9.88 7.33L4 8.25L8.5 12.36L7.28 18L12 15.27L16.72 18L15.5 12.36L20 8.25L14.12 7.33L12 2Z" stroke="#ffffff" stroke-width="1.5" stroke-linecap="round" stroke-linejoin="round"/>
<path d="M18 12L19.5 15L22 15.5L20 17.5L20.5 20L18 18.5L15.5 20L16 17.5L14 15.5L16.5 15L18 12Z" fill="#0ea5e9" stroke="#ffffff" stroke-width="1.5"/>
</svg>
